<svg width="24" height="24" viewBox="0 0 24 24" fill="none" xmlns="http://www.w3.org/2000/svg">
<g clip-path="url(#clip0_2001_696)">
<path d="M6.44999 22C5.78087 22.0134 5.11618 21.8885 4.49758 21.6331C3.87898 21.3777 3.3198 20.9972 2.85508 20.5156C2.39037 20.034 2.03014 19.4616 1.79696 18.8343C1.56378 18.2069 1.46268 17.5382 1.49999 16.87C1.53607 15.7888 1.92182 14.7485 2.59934 13.9052C3.27686 13.0619 4.2096 12.4611 5.25759 12.1929C6.30558 11.9247 7.41228 12.0036 8.41161 12.4178C9.41094 12.832 10.249 13.5591 10.8 14.49C11.4853 14.1579 12.2385 13.9902 13 14C13.5764 14.0018 14.1482 14.1033 14.69 14.3C14.3917 13.3282 14.2433 12.3166 14.25 11.3C14.2459 10.3066 14.3943 9.31841 14.69 8.37V7.18C14.146 7.4245 13.5564 7.55091 12.96 7.55091C12.3636 7.55091 11.774 7.4245 11.23 7.18C10.6413 6.77393 10.2171 6.17093 10.0337 5.47969C9.85036 4.78845 9.91997 4.05445 10.23 3.41C10.68 2.47 12.02 1.59 14.74 1.89C16.01 2.02 18.49 4.46 18.74 4.72C20.2852 6.23518 21.4247 8.11448 22.0537 10.1851C22.6828 12.2558 22.7812 14.4514 22.34 16.57C22.1733 17.5394 21.936 18.4952 21.63 19.43C21.1 21.05 19.16 22.17 16.8 22.17C14.22 22.17 6.44999 22 6.44999 22Z" stroke="black" stroke-width="2" stroke-linecap="round" stroke-linejoin="round"/>
<path d="M10.8 14.49C10.2245 14.8119 9.77116 15.3145 9.51 15.92" stroke="black" stroke-width="2" stroke-linecap="round" stroke-linejoin="round"/>
<path d="M14.66 14.29C14.66 14.29 15.56 14.49 16.33 15.92" stroke="black" stroke-width="2" stroke-linecap="round" stroke-linejoin="round"/>
<path d="M10 5.46C10 6.12 14.44 6.24 14 4.14" stroke="black" stroke-width="2" stroke-linecap="round" stroke-linejoin="round"/>
</g>
<defs>
<clipPath id="clip0_2001_696">
<rect width="24" height="24" fill="white"/>
</clipPath>
</defs>
</svg>
